<?xml version="1.0" standalone="no"?>
<!DOCTYPE svg PUBLIC "-//W3C//DTD SVG 20010904//EN"
        "http://www.w3.org/TR/2001/REC-SVG-20010904/DTD/svg10.dtd">
<svg version="1.0" xmlns="http://www.w3.org/2000/svg"
     width="212.000000pt" height="266.000000pt" viewBox="0 0 212.000000 266.000000"
     preserveAspectRatio="xMidYMid meet">

    <g transform="translate(0.000000,266.000000) scale(0.100000,-0.100000)"
       fill="#797474" stroke="none">
        <path d="M232 2574 c-28 -14 -70 -46 -92 -71 -74 -85 -71 -24 -68 -1199 l3
-1049 27 -51 c31 -58 84 -108 142 -135 39 -18 84 -19 816 -19 758 0 776 1 820
21 58 26 105 72 138 134 l27 50 3 937 c3 1020 3 1014 -53 1133 -37 77 -130
174 -206 215 -115 61 -101 60 -835 60 l-670 0 -52 -26z m1476 -137 c93 -43
202 -180 202 -255 l0 -24 -98 4 c-90 3 -102 5 -135 31 -56 43 -67 72 -67 182
l0 95 28 -6 c15 -4 46 -16 70 -27z m-320 -1011 c150 -151 182 -188 182 -211 0
-24 -31 -60 -172 -203 -95 -96 -186 -180 -203 -187 -47 -21 -95 11 -95 63 0 9
53 70 117 134 l118 118 -358 0 c-295 0 -363 3 -386 15 -46 23 -55 71 -21 105
19 19 33 20 392 20 l371 0 -116 119 c-76 78 -117 127 -117 141 0 48 42 84 85
73 11 -2 102 -87 203 -187z m-829 -881 c28 -14 41 -33 41 -61 0 -22 -48 -17
-60 7 -14 25 -63 23 -68 -4 -3 -12 10 -23 45 -38 26 -11 56 -28 66 -36 17 -16
23 -69 9 -89 -13 -20 -50 -34 -92 -34 -33 0 -48 6 -71 29 -38 38 -38 61 0 61
20 0 30 -6 34 -20 8 -29 77 -29 77 0 0 15 -15 27 -55 45 -34 15 -59 33 -66 49
-34 73 59 134 140 91z m131 -84 c0 -107 8 -125 52 -119 22 3 23 8 28 108 l5
105 28 3 27 3 0 -111 c0 -104 -1 -112 -25 -135 -37 -37 -106 -35 -146 4 -28
29 -29 32 -29 129 0 54 3 102 7 105 3 4 17 7 30 7 23 0 23 -2 23 -99z m330 81
c28 -13 36 -24 38 -50 2 -18 -2 -39 -8 -46 -8 -10 -6 -21 6 -43 39 -67 -10
-113 -121 -113 l-65 0 0 128 c0 71 3 132 7 135 13 14 109 7 143 -11z m185 -69
c17 -46 33 -83 36 -83 4 0 20 37 35 83 29 82 29 82 67 85 l37 3 0 -135 0 -136
-30 0 -29 0 -3 77 -3 77 -26 -74 c-20 -57 -31 -76 -47 -78 -20 -3 -23 2 -66
123 l-15 40 0 -82 -1 -83 -30 0 -30 0 0 128 c0 71 3 132 7 136 4 4 21 6 38 4
28 -3 32 -9 60 -85z m275 -48 l0 -135 -30 0 -30 0 0 128 c0 71 3 132 7 135 3
4 17 7 30 7 23 0 23 0 23 -135z m240 110 c0 -22 -4 -25 -40 -25 l-40 0 0 -110
0 -110 -30 0 -30 0 0 110 0 110 -40 0 c-32 0 -40 4 -40 18 0 10 3 22 7 25 3 4
53 7 110 7 l103 0 0 -25z"/>
        <path d="M930 479 c0 -28 2 -30 33 -27 41 4 52 42 15 52 -41 11 -48 7 -48 -25z"/>
        <path d="M930 370 c0 -26 3 -30 29 -30 32 0 56 22 47 45 -3 9 -18 15 -41 15
-32 0 -35 -2 -35 -30z"/>
    </g>
</svg>
